<svg width="80" height="164" viewBox="0 0 80 164" fill="none" xmlns="http://www.w3.org/2000/svg">
<path d="M39.4968 1.45154C39.6527 1.70844 39.85 2.03579 40.0854 2.43077C40.737 3.52423 41.6808 5.13596 42.8476 7.20642C45.1813 11.3475 48.407 17.3228 51.9722 24.6561C59.1039 39.3252 67.5887 59.4163 73.0149 81.1213C78.438 102.814 79.3118 123.39 78.8284 138.547C78.5867 146.124 78.006 152.343 77.486 156.667C77.226 158.829 76.9812 160.516 76.8017 161.662C76.7119 162.235 76.6384 162.672 76.5875 162.966C76.5855 162.978 76.5835 162.989 76.5816 163H3.26864C3.26716 162.991 3.26565 162.981 3.26412 162.972C3.21681 162.678 3.14855 162.24 3.0651 161.667C2.89821 160.521 2.67061 158.833 2.42853 156.671C1.94436 152.347 1.40237 146.126 1.17222 138.547C0.711858 123.388 1.49961 102.808 6.48729 81.112C11.4759 59.4113 19.8345 39.3234 26.9499 24.6557C30.5069 17.3233 33.7516 11.3486 36.1065 7.20813C37.2839 5.13794 38.2387 3.52646 38.8987 2.43323C39.138 2.03695 39.3385 1.70877 39.4968 1.45154Z" fill="white" stroke="black"/>
</svg>
